# xmcd
#
# Track frame offsets:
#	150
#	17644
#	34425
#	52421
#	70696
#	85242
#	101442
#	120972
#	137873
#	155768
#	179367
#	197396
#
# Disc length: 2849 seconds
# Revision: 0
# Processed by: cddbd v1.5.2PL0 Copyright (c) Steve Scherf et al.
# Submitted via: dBpowerAMP V12.0
#
DISCID=a20b1f0c
DTITLE=Jamison Road - Let It Rain
DYEAR=2014
DGENRE=Country
TTITLE0=Already Gone
TTITLE1=Maybe Tonight
TTITLE2=Bourbon And Bibles
TTITLE3=Broken
TTITLE4=Friends Like These
TTITLE5=Let It Rain
TTITLE6=Seventeen
TTITLE7=Better Off
TTITLE8=Jeanie's In The Bottle
TTITLE9=Go It Alone
TTITLE10=So I Run
TTITLE11=Goodbye Tune
EXTD=
EXTT0=
EXTT1=
EXTT2=
EXTT3=
EXTT4=
EXTT5=
EXTT6=
EXTT7=
EXTT8=
EXTT9=
EXTT10=
EXTT11=
PLAYORDER=
